<svg width="15" height="14" viewBox="0 0 15 14" fill="none" xmlns="http://www.w3.org/2000/svg">
<path d="M6 2H7V3H8V2H9V1H12V2H13V3H14V7H13V8H12V9H11V10H10V11H9V12H8V13H7V12H6V11H5V10H4V9H3V8H2V7H1V3H2V2H3V1H6V2ZM4 3H3V4H2V5H3V4H4V3H5V2H4V3Z" fill="white"/>
<path d="M8 14H7V13H8V14ZM7 13H6V12H7V13ZM9 12V13H8V12H9ZM6 12H5V11H6V12ZM10 12H9V11H10V12ZM5 11H4V10H5V11ZM11 11H10V10H11V11ZM4 10H3V9H4V10ZM12 10H11V9H12V10ZM3 9H2V8H3V9ZM13 9H12V8H13V9ZM2 8H1V7H2V8ZM14 8H13V7H14V8ZM1 7H0V3H1V7ZM15 7H14V3H15V7ZM3 5H2V4H3V5ZM4 4H3V3H4V4ZM2 3H1V2H2V3ZM5 3H4V2H5V3ZM8 3H7V2H8V3ZM14 3H13V2H14V3ZM3 2H2V1H3V2ZM7 2H6V1H7V2ZM9 2H8V1H9V2ZM13 2H12V1H13V2ZM6 1H3V0H6V1ZM12 1H9V0H12V1Z" fill="#535353"/>
</svg>
