<svg width="32" height="32" viewBox="0 0 32 32" fill="none" xmlns="http://www.w3.org/2000/svg">
<rect width="32" height="32" fill="#535353"/>
<path d="M20.32 4.96H21.28V5.92H18.4V6.88H17.44V7.84H16.48V8.8H15.52V9.76H14.56V11.68H13.6V16.48H14.56V18.4H15.52V19.36H16.48V20.32H19.36V21.28H23.2V20.32H25.12V19.36H26.08V18.4H28V20.32H27.04V22.24H26.08V23.2H25.12V25.12H23.2V26.08H22.24V27.04H19.36V28H12.64V27.04H9.76V26.08H8.8V25.12H7.84V24.16H6.88V23.2H5.92V22.24H4.96V20.32H4V12.64H4.96V9.76H5.92V8.8H6.88V7.84H7.84V6.88H8.8V5.92H10.72V4.96H12.64V4H20.32V4.96Z" fill="white"/>
</svg>
