<svg width="32" height="32" viewBox="0 0 32 32" fill="none" xmlns="http://www.w3.org/2000/svg">
<rect width="32" height="32" fill="white"/>
<path d="M10.8571 26.8571H9.71429V28H8.57143V25.7143H9.71429V24.5714H10.8571V26.8571Z" fill="#535353"/>
<path d="M16.5714 28H15.4286V25.7143H16.5714V28Z" fill="#535353"/>
<path d="M22.2857 25.7143H23.4286V28H22.2857V26.8571H21.1429V24.5714H22.2857V25.7143Z" fill="#535353"/>
<path d="M18.8571 8.57143H21.1429V9.71429H22.2857V10.8571H23.4286V13.1429H24.5714V18.8571H23.4286V21.1429H22.2857V22.2857H21.1429V23.4286H18.8571V24.5714H13.1429V23.4286H10.8571V22.2857H9.71429V21.1429H8.57143V18.8571H7.42857V13.1429H8.57143V10.8571H9.71429V9.71429H10.8571V8.57143H13.1429V7.42857H18.8571V8.57143Z" fill="#535353"/>
<path d="M6.28571 21.1429H7.42857V22.2857H5.14286V21.1429H4V20H6.28571V21.1429Z" fill="#535353"/>
<path d="M28 21.1429H26.8571V22.2857H24.5714V21.1429H25.7143V20H28V21.1429Z" fill="#535353"/>
<path d="M6.28571 16.5714H4V15.4286H6.28571V16.5714Z" fill="#535353"/>
<path d="M28 16.5714H25.7143V15.4286H28V16.5714Z" fill="#535353"/>
<path d="M7.42857 10.8571H6.28571V12H4V10.8571H5.14286V9.71429H7.42857V10.8571Z" fill="#535353"/>
<path d="M26.8571 10.8571H28V12H25.7143V10.8571H24.5714V9.71429H26.8571V10.8571Z" fill="#535353"/>
<path d="M9.71429 5.14286H10.8571V7.42857H9.71429V6.28571H8.57143V4H9.71429V5.14286Z" fill="#535353"/>
<path d="M23.4286 6.28571H22.2857V7.42857H21.1429V5.14286H22.2857V4H23.4286V6.28571Z" fill="#535353"/>
<path d="M16.5714 6.28571H15.4286V4H16.5714V6.28571Z" fill="#535353"/>
</svg>
