<svg width="23" height="21" viewBox="0 0 23 21" fill="none" xmlns="http://www.w3.org/2000/svg">
<path fill-rule="evenodd" clip-rule="evenodd" d="M20.1524 0.219048H20.3714V0.438095H20.5905V0.657143H20.8095V0.876191H21.0286V1.09524H21.2476V1.31429H21.4667V1.53333H21.6857V1.75238H21.9048V1.97143H22.1238V2.19048H22.3429V2.40952H22.5619V2.62857H22.781V2.84762H23V17.5238H22.781V17.7429H22.5619V17.9619H22.3429V18.181H22.1238V18.4H21.9048V18.619H21.6857V18.8381H21.4667V19.0571H21.2476V19.2762H21.0286V19.4952H20.8095V19.7143H20.5905V19.9333H20.3714V20.1524H20.1524V20.3714H2.84762V20.1524H2.62857V19.9333H2.40952V19.7143H2.19048V19.4952H1.97143V19.2762H1.75238V19.0571H1.53333V18.8381H1.31429V18.619H1.09524V18.4H0.87619V18.181H0.657143V17.9619H0.438095V17.7429H0.219048V17.5238H0V2.84762H0.219048V2.62857H0.438095V2.40952H0.657143V2.19048H0.87619V1.97143H1.09524V1.75238H1.31429V1.53333H1.53333V1.31429H1.75238V1.09524H1.97143V0.876191H2.19048V0.657143H2.40952V0.438095H2.62857V0.219048H2.84762V0H20.1524V0.219048ZM8.98095 4.16191H4.6V4.38095H4.38095V4.6H4.1619V4.81905H3.94286V5.0381H3.72381V5.25714H3.50476V5.47619H3.28571V5.69524H3.06667V5.91429H2.84762V14.4571H3.06667V14.6762H3.28571V14.8952H3.50476V15.1143H3.72381V15.3333H3.94286V15.5524H4.1619V15.7714H4.38095V15.9905H4.6V16.2095H18.4V15.9905H18.619V15.7714H18.8381V15.5524H19.0571V15.3333H19.2762V15.1143H19.4952V14.8952H19.7143V14.6762H19.9333V14.4571H20.1524V5.91429H19.9333V5.69524H19.7143V5.47619H19.4952V5.25714H19.2762V5.0381H19.0571V4.81905H18.8381V4.6H18.619V4.38095H18.4V4.16191H14.4571V7.00952H17.3048V13.3619H5.69524V7.00952H8.98095V9.41905H9.2V9.2H9.41905V8.98095H9.63809V8.76191H9.85714V8.54286H10.0762V8.32381H10.2952V8.10476H10.5143V7.88572H10.7333V7.66667H10.9524V7.44762H11.1714V7.22857H11.3905V7.00952H11.6095V6.79048H11.8286V6.57143H12.0476V6.35238H12.2667V6.13333H12.4857V5.91429H12.7048V5.69524H12.9238V5.47619H12.7048V5.25714H12.4857V5.0381H12.2667V4.81905H12.0476V4.6H11.8286V4.38095H11.6095V4.16191H11.3905V3.94286H11.1714V3.72381H10.9524V3.50476H10.7333V3.28571H10.5143V3.06667H10.2952V2.84762H10.0762V2.62857H9.85714V2.40952H9.63809V2.19048H9.41905V1.97143H9.2V1.75238H8.98095V4.16191Z" fill="white"/>
<path d="M9.2 1.75238V1.97143H9.41905V2.19048H9.63809V2.40952H9.85714V2.62857H10.0762V2.84762H10.2952V3.06667H10.5143V3.28571H10.7333V3.50476H10.9524V3.72381H11.1714V3.94286H11.3905V4.16191H11.6095V4.38095H11.8286V4.6H12.0476V4.81905H12.2667V5.0381H12.4857V5.25714H12.7048V5.47619H12.9238V5.69524H12.7048V5.91429H12.4857V6.13333H12.2667V6.35238H12.0476V6.57143H11.8286V6.79048H11.6095V7.00952H11.3905V7.22857H11.1714V7.44762H10.9524V7.66667H10.7333V7.88572H10.5143V8.10476H10.2952V8.32381H10.0762V8.54286H9.85714V8.76191H9.63809V8.98095H9.41905V9.2H9.2V9.41905H8.98095V7.00952H5.69524V13.3619H17.3048V7.00952H14.4571V4.16191H18.4V4.38095H18.619V4.6H18.8381V4.81905H19.0571V5.0381H19.2762V5.25714H19.4952V5.47619H19.7143V5.69524H19.9333V5.91429H20.1524V14.4571H19.9333V14.6762H19.7143V14.8952H19.4952V15.1143H19.2762V15.3333H19.0571V15.5524H18.8381V15.7714H18.619V15.9905H18.4V16.2095H4.6V15.9905H4.38095V15.7714H4.1619V15.5524H3.94286V15.3333H3.72381V15.1143H3.50476V14.8952H3.28571V14.6762H3.06667V14.4571H2.84762V5.91429H3.06667V5.69524H3.28571V5.47619H3.50476V5.25714H3.72381V5.0381H3.94286V4.81905H4.1619V4.6H4.38095V4.38095H4.6V4.16191H8.98095V1.75238H9.2Z" fill="#535353"/>
</svg>
