<svg width="120" height="120" viewBox="0 0 120 120" fill="none" xmlns="http://www.w3.org/2000/svg">
<g clip-path="url(#clip0_35_1974)">
<rect width="120" height="120" fill="white"/>
<path d="M97.667 104.333H98.667V104.667H99.333V105H100V105.333H100.333V105.667H100.667V106H101V106.667H101.333V107.333H101.667V108.333H102V110.667H101.667V111.667H101.333V112.333H101V113H100.667V113.333H100.333V113.667H100V114H99.333V114.333H98.667V114.667H97.667V115H95.333V114.667H94.333V114.333H93.667V114H93V113.667H92.667V113.333H92.333V113H92V112.333H91.667V111.667H91.333V110.667H91V108.333H91.333V107.333H91.667V106.667H92V106H92.333V105.667H92.667V105.333H93V105H93.667V104.667H94.333V104.333H95.333V104H97.667V104.333ZM95.333 104.667V105H94.333V105.333H93.667V105.667H93.333V106H93V106.333H92.667V106.667H92.333V107.333H92V108.333H91.667V110.667H92V111.667H92.333V112.333H92.667V112.667H93V113H93.333V113.333H93.667V113.667H94.333V114H95.333V114.333H97.667V114H98.667V113.667H99.333V113.333H99.667V113H100V112.667H100.333V112.333H100.667V111.667H101V110.667H101.333V108.333H101V107.333H100.667V106.667H100.333V106.333H100V106H99.667V105.667H99.333V105.333H98.667V105H97.667V104.667H95.333ZM96.667 113.667H96V113H96.667V113.667ZM98 113H97.667V112.667H98V113ZM95 111.667H95.333V112.333H95V112.667H94.333V112.333H94V111.667H94.333V111.333H95V111.667ZM93.667 110.667H93V110H93.667V110.667ZM95.667 110.333H95V109.667H95.667V110.333ZM94.333 107.667H94.667V108.667H94.333V109H93.333V108.667H93V107.667H93.333V107.333H94.333V107.667ZM96.667 107.667H96V107H96.667V107.667ZM95.333 106.667H94.333V105.667H95.333V106.667ZM97.667 106H97.333V105.667H97.667V106ZM96.333 105.667H96V105.333H96.333V105.667Z" fill="#535353"/>
<path d="M36.1816 -10.0908H38.9092V-9.18164H40.7275V-8.27246H42.5459V-7.36328H43.4541V-6.4541H44.3633V-5.5459H45.2725V-3.72754H46.1816V-1.90918H47.0908V0.818359H48V7.18164H47.0908V9.90918H46.1816V11.7275H45.2725V13.5459H44.3633V14.4541H43.4541V15.3633H42.5459V16.2725H40.7275V17.1816H38.9092V18.0908H36.1816V19H29.8184V18.0908H27.0908V17.1816H25.2725V16.2725H23.4541V15.3633H22.5459V14.4541H21.6367V13.5459H20.7275V11.7275H19.8184V9.90918H18.9092V7.18164H18V0.818359H18.9092V-1.90918H19.8184V-3.72754H20.7275V-5.5459H21.6367V-6.4541H22.5459V-7.36328H23.4541V-8.27246H25.2725V-9.18164H27.0908V-10.0908H29.8184V-11H36.1816V-10.0908ZM29.8184 -9.18164V-8.27246H27.0908V-7.36328H25.2725V-6.4541H24.3633V-5.5459H23.4541V-4.63672H22.5459V-3.72754H21.6367V-1.90918H20.7275V0.818359H19.8184V7.18164H20.7275V9.90918H21.6367V11.7275H22.5459V12.6367H23.4541V13.5459H24.3633V14.4541H25.2725V15.3633H27.0908V16.2725H29.8184V17.1816H36.1816V16.2725H38.9092V15.3633H40.7275V14.4541H41.6367V13.5459H42.5459V12.6367H43.4541V11.7275H44.3633V9.90918H45.2725V7.18164H46.1816V0.818359H45.2725V-1.90918H44.3633V-3.72754H43.4541V-4.63672H42.5459V-5.5459H41.6367V-6.4541H40.7275V-7.36328H38.9092V-8.27246H36.1816V-9.18164H29.8184ZM29.8184 15.3633H28.9092V14.4541H29.8184V15.3633ZM34.3633 11.7275H35.2725V14.4541H34.3633V15.3633H31.6367V14.4541H30.7275V11.7275H31.6367V10.8184H34.3633V11.7275ZM39.8184 14.4541H38V12.6367H39.8184V14.4541ZM26.1816 11.7275H24.3633V9.90918H26.1816V11.7275ZM40.7275 11.7275H39.8184V10.8184H40.7275V11.7275ZM37.0908 10.8184H36.1816V9.90918H37.0908V10.8184ZM29.8184 7.18164H30.7275V9H29.8184V9.90918H28V9H27.0908V7.18164H28V6.27246H29.8184V7.18164ZM34.3633 9H32.5459V7.18164H34.3633V9ZM23.4541 8.09082H22.5459V7.18164H23.4541V8.09082ZM26.1816 0.818359H27.0908V3.5459H26.1816V4.4541H23.4541V3.5459H22.5459V0.818359H23.4541V-0.0908203H26.1816V0.818359ZM30.7275 0.818359H28.9092V-1H30.7275V0.818359ZM33.4541 -1H31.6367V-2.81836H33.4541V-1ZM27.0908 -1.90918H25.2725V-3.72754H27.0908V-1.90918ZM32.5459 -6.4541H33.4541V-4.63672H32.5459V-3.72754H30.7275V-4.63672H29.8184V-6.4541H30.7275V-7.36328H32.5459V-6.4541ZM36.1816 -5.5459H35.2725V-6.4541H36.1816V-5.5459Z" fill="#535353"/>
<path d="M36.1816 109.909H38.9092V110.818H40.7275V111.728H42.5459V112.637H43.4541V113.546H44.3633V114.454H45.2725V116.272H46.1816V118.091H47.0908V120.818H48V127.182H47.0908V129.909H46.1816V131.728H45.2725V133.546H44.3633V134.454H43.4541V135.363H42.5459V136.272H40.7275V137.182H38.9092V138.091H36.1816V139H29.8184V138.091H27.0908V137.182H25.2725V136.272H23.4541V135.363H22.5459V134.454H21.6367V133.546H20.7275V131.728H19.8184V129.909H18.9092V127.182H18V120.818H18.9092V118.091H19.8184V116.272H20.7275V114.454H21.6367V113.546H22.5459V112.637H23.4541V111.728H25.2725V110.818H27.0908V109.909H29.8184V109H36.1816V109.909ZM29.8184 110.818V111.728H27.0908V112.637H25.2725V113.546H24.3633V114.454H23.4541V115.363H22.5459V116.272H21.6367V118.091H20.7275V120.818H19.8184V127.182H20.7275V129.909H21.6367V131.728H22.5459V132.637H23.4541V133.546H24.3633V134.454H25.2725V135.363H27.0908V136.272H29.8184V137.182H36.1816V136.272H38.9092V135.363H40.7275V134.454H41.6367V133.546H42.5459V132.637H43.4541V131.728H44.3633V129.909H45.2725V127.182H46.1816V120.818H45.2725V118.091H44.3633V116.272H43.4541V115.363H42.5459V114.454H41.6367V113.546H40.7275V112.637H38.9092V111.728H36.1816V110.818H29.8184ZM29.8184 135.363H28.9092V134.454H29.8184V135.363ZM34.3633 131.728H35.2725V134.454H34.3633V135.363H31.6367V134.454H30.7275V131.728H31.6367V130.818H34.3633V131.728ZM39.8184 134.454H38V132.637H39.8184V134.454ZM26.1816 131.728H24.3633V129.909H26.1816V131.728ZM40.7275 131.728H39.8184V130.818H40.7275V131.728ZM37.0908 130.818H36.1816V129.909H37.0908V130.818ZM29.8184 127.182H30.7275V129H29.8184V129.909H28V129H27.0908V127.182H28V126.272H29.8184V127.182ZM34.3633 129H32.5459V127.182H34.3633V129ZM23.4541 128.091H22.5459V127.182H23.4541V128.091ZM26.1816 120.818H27.0908V123.546H26.1816V124.454H23.4541V123.546H22.5459V120.818H23.4541V119.909H26.1816V120.818ZM30.7275 120.818H28.9092V119H30.7275V120.818ZM33.4541 119H31.6367V117.182H33.4541V119ZM27.0908 118.091H25.2725V116.272H27.0908V118.091ZM32.5459 113.546H33.4541V115.363H32.5459V116.272H30.7275V115.363H29.8184V113.546H30.7275V112.637H32.5459V113.546ZM36.1816 114.454H35.2725V113.546H36.1816V114.454Z" fill="#535353"/>
<path d="M0.655273 38.7588H2.93066V39.5176H4.44824V40.2754H5.20703V41.0342H5.96582V41.793H6.72461V42.5518H7.48242V44.0693H8.24121V46.3447H9V51.6553H8.24121V53.9307H7.48242V55.4482H6.72461V56.207H5.96582V56.9658H5.20703V57.7246H4.44824V58.4824H2.93066V59.2412H0.655273V60H-4.65527V59.2412H-6.93066V58.4824H-8.44824V57.7246H-9.20703V56.9658H-9.96582V56.207H-10.7246V55.4482H-11.4824V53.9307H-12.2412V51.6553H-13V46.3447H-12.2412V44.0693H-11.4824V42.5518H-10.7246V41.793H-9.96582V41.0342H-9.20703V40.2754H-8.44824V39.5176H-6.93066V38.7588H-4.65527V38H0.655273V38.7588ZM-3.1377 58.4824H-1.62109V56.9658H-3.1377V58.4824ZM0.655273 56.9658H1.41406V56.207H0.655273V56.9658ZM-6.93066 53.9307H-7.68945V55.4482H-6.93066V56.207H-5.41406V55.4482H-4.65527V53.9307H-5.41406V53.1729H-6.93066V53.9307ZM-9.96582 51.6553H-8.44824V50.1377H-9.96582V51.6553ZM-5.41406 50.8965H-3.89648V49.3789H-5.41406V50.8965ZM-9.20703 44.8271H-9.96582V47.1035H-9.20703V47.8623H-6.93066V47.1035H-6.17285V44.8271H-6.93066V44.0693H-9.20703V44.8271ZM-3.1377 44.8271H-1.62109V43.3105H-3.1377V44.8271ZM-6.93066 42.5518H-4.65527V40.2754H-6.93066V42.5518ZM-0.103516 41.0342H0.655273V40.2754H-0.103516V41.0342ZM-3.1377 40.2754H-2.37891V39.5176H-3.1377V40.2754Z" fill="#535353"/>
<path d="M120.655 38.7588H122.931V39.5176H124.448V40.2754H125.207V41.0342H125.966V41.793H126.725V42.5518H127.482V44.0693H128.241V46.3447H129V51.6553H128.241V53.9307H127.482V55.4482H126.725V56.207H125.966V56.9658H125.207V57.7246H124.448V58.4824H122.931V59.2412H120.655V60H115.345V59.2412H113.069V58.4824H111.552V57.7246H110.793V56.9658H110.034V56.207H109.275V55.4482H108.518V53.9307H107.759V51.6553H107V46.3447H107.759V44.0693H108.518V42.5518H109.275V41.793H110.034V41.0342H110.793V40.2754H111.552V39.5176H113.069V38.7588H115.345V38H120.655V38.7588ZM116.862 58.4824H118.379V56.9658H116.862V58.4824ZM120.655 56.9658H121.414V56.207H120.655V56.9658ZM113.069 53.9307H112.311V55.4482H113.069V56.207H114.586V55.4482H115.345V53.9307H114.586V53.1729H113.069V53.9307ZM110.034 51.6553H111.552V50.1377H110.034V51.6553ZM114.586 50.8965H116.104V49.3789H114.586V50.8965ZM110.793 44.8271H110.034V47.1035H110.793V47.8623H113.069V47.1035H113.827V44.8271H113.069V44.0693H110.793V44.8271ZM116.862 44.8271H118.379V43.3105H116.862V44.8271ZM113.069 42.5518H115.345V40.2754H113.069V42.5518ZM119.896 41.0342H120.655V40.2754H119.896V41.0342ZM116.862 40.2754H117.621V39.5176H116.862V40.2754Z" fill="#535353"/>
<rect x="51" y="45" width="1" height="1" fill="#535353"/>
<rect x="70" y="29" width="1" height="1" fill="#535353"/>
<rect x="34" y="63" width="1" height="1" fill="#535353"/>
<rect x="67" y="81" width="1" height="1" fill="#535353"/>
<rect x="42" y="77" width="1" height="1" fill="#535353"/>
<rect x="16" y="66" width="1" height="1" fill="#535353"/>
<rect x="99" y="36" width="1" height="1" fill="#535353"/>
<rect x="53" y="93" width="1" height="1" fill="#535353"/>
<rect x="77" y="97" width="1" height="1" fill="#535353"/>
<rect x="76" y="53" width="1" height="1" fill="#535353"/>
<rect x="86" y="43" width="1" height="1" fill="#535353"/>
<rect x="82" y="79" width="1" height="1" fill="#535353"/>
<rect x="29" y="46" width="1" height="1" fill="#535353"/>
<rect x="62" y="13" width="1" height="1" fill="#535353"/>
<rect x="12" y="80" width="1" height="1" fill="#535353"/>
<rect x="103" y="91" width="1" height="1" fill="#535353"/>
<rect x="107" y="12" width="1" height="1" fill="#535353"/>
<rect x="61" y="63" width="1" height="1" fill="#535353"/>
<rect x="38" y="31" width="1" height="1" fill="#535353"/>
<rect x="89" y="6" width="1" height="1" fill="#535353"/>
<rect x="14" y="105" width="1" height="1" fill="#535353"/>
<rect x="87" y="114" width="1" height="1" fill="#535353"/>
<rect x="6" y="12" width="1" height="1" fill="#535353"/>
<rect x="15" y="27" width="1" height="1" fill="#535353"/>
<rect x="91" y="23" width="1" height="1" fill="#535353"/>
<rect x="33" y="90" width="1" height="1" fill="#535353"/>
<rect x="94" y="70" width="1" height="1" fill="#535353"/>
<rect x="112" y="78" width="1" height="1" fill="#535353"/>
<rect x="112" y="107" width="1" height="1" fill="#535353"/>
<rect x="67" y="105" width="1" height="1" fill="#535353"/>
</g>
<defs>
<clipPath id="clip0_35_1974">
<rect width="120" height="120" fill="white"/>
</clipPath>
</defs>
</svg>
